<svg xmlns="http://www.w3.org/2000/svg" width="200" height="128">
    <defs>
        <linearGradient id="a" x1="352.38" y1="-140.51" x2="352.38" y2="9.49" gradientTransform="scale(1 -1) rotate(-45 202.814 266.896)" gradientUnits="userSpaceOnUse">
            <stop offset="0" stop-color="#4d27a8"/>
            <stop offset="1" stop-color="#a166ff"/>
        </linearGradient>
    </defs>
    <path d="M91.65 90.74l-1-2.95h-4.59l-1 2.95h-1.67l4.1-11.09h1.76l4.09 11.09zm-5.17-4.18h3.73l-1.87-5.44zm15.84 4.18l-2.1-8.69-2.11 8.69h-1.82l-3.23-11.09h1.77l2.39 9.29 2.12-9h1.8l2.12 9 2.4-9.31h1.72l-3.24 11.09zm8.75-5.27a4.51 4.51 0 01-1.9-1.2 2.63 2.63 0 01-.59-1.77 3 3 0 01.44-1.6 3.09 3.09 0 011.29-1.09 4.52 4.52 0 012-.4 8.39 8.39 0 013 .57v1.3a10 10 0 00-2.85-.5 2.68 2.68 0 00-1.61.43 1.4 1.4 0 00-.56 1.21 1.33 1.33 0 00.38 1 4.07 4.07 0 001.42.76l1.46.55a4.31 4.31 0 011.86 1.16 2.61 2.61 0 01.57 1.75 3 3 0 01-1.1 2.45 4.5 4.5 0 01-2.95.91 7.29 7.29 0 01-3.2-.66v-1.27a9.87 9.87 0 003.17.56 2.85 2.85 0 001.78-.49 1.59 1.59 0 00.65-1.35 1.36 1.36 0 00-.37-1 3.73 3.73 0 00-1.28-.75zM71 106.74l-.78-2.53h-3.81l-.75 2.53h-2.51l3.9-11.09h2.64l3.9 11.09zm-4.06-4.26h2.76l-1.4-4.64zm7.87 7.52V98.56h1.92l.19.77a3.55 3.55 0 011.16-.74 3.72 3.72 0 011.38-.27 3 3 0 012.46 1.14 4.8 4.8 0 01.91 3.07 5.71 5.71 0 01-.42 2.25 3.53 3.53 0 01-1.2 1.56 3 3 0 01-1.81.57 3.73 3.73 0 01-1.25-.21 2.88 2.88 0 01-1-.57V110zm3.9-10a3 3 0 00-1.56.43v4.21a2.88 2.88 0 001.56.43 1.48 1.48 0 001.32-.61 3.32 3.32 0 00.43-1.92 3.45 3.45 0 00-.42-1.93 1.49 1.49 0 00-1.33-.53zm5.94 10V98.56h1.92l.19.77a3.55 3.55 0 011.16-.74 3.72 3.72 0 011.38-.27 3 3 0 012.46 1.14 4.8 4.8 0 01.91 3.07 5.71 5.71 0 01-.42 2.25 3.53 3.53 0 01-1.2 1.56 3 3 0 01-1.81.57 3.73 3.73 0 01-1.24-.21 3 3 0 01-1-.57V110zm3.9-10a3.07 3.07 0 00-1.57.43v4.21a2.94 2.94 0 001.57.43 1.48 1.48 0 001.32-.61 3.32 3.32 0 00.43-1.92 3.45 3.45 0 00-.42-1.93 1.49 1.49 0 00-1.33-.53zm19.45 6.74v-7.68l-2.45 5h-2.15l-2.45-5v7.68h-2.11V95.65h2.62l3 6.3 3-6.3h2.57v11.09zm6.26-3.52a2 2 0 00.64 1.52 2.8 2.8 0 001.81.48 9.67 9.67 0 002.49-.4v1.55a5.45 5.45 0 01-1.33.45 8.53 8.53 0 01-1.61.16 4.09 4.09 0 01-3.1-1.11 5.4 5.4 0 010-6.41 3.8 3.8 0 012.93-1.14 3.26 3.26 0 012.44.87 3.41 3.41 0 01.86 2.49c0 .24 0 .5-.05.8s-.07.54-.11.74zm1.74-3.28a1.64 1.64 0 00-1.24.47 2.12 2.12 0 00-.52 1.37h3.14v-.28q-.01-1.56-1.38-1.56zm8.64 4.54a.68.68 0 00-.18-.5 2.49 2.49 0 00-.75-.38l-1.24-.5a3.22 3.22 0 01-1.41-.94 2.24 2.24 0 01-.43-1.42 2.12 2.12 0 01.87-1.76 3.77 3.77 0 012.33-.66 5.87 5.87 0 012.48.53v1.55a8.08 8.08 0 00-2.31-.4 2.31 2.31 0 00-1 .16.54.54 0 00-.3.51.56.56 0 00.18.44 2.91 2.91 0 00.78.41l1.22.5a3.35 3.35 0 011.41.93 2.14 2.14 0 01.43 1.37 2.34 2.34 0 01-.91 1.91 3.63 3.63 0 01-2.37.73 6.37 6.37 0 01-2.92-.65v-1.56a9.55 9.55 0 002.9.5c.83.03 1.21-.25 1.21-.77zm8.9 2.26v-5.36a1.36 1.36 0 00-.29-1 1.14 1.14 0 00-.88-.31 3.16 3.16 0 00-1.74.55v6.08h-2.34V94.9h2.34v4.4a4.88 4.88 0 012.88-1 2.14 2.14 0 012.36 2.37v6z" fill="#333"/>
    <path d="M73 19h54v54H73z" fill="url(#a)"/>
    <path d="M105 41.3l-3.8 1.9a2.1 2.1 0 00-1.1-.4 3.55 3.55 0 00-1 .2l-3.3-1.7-.7 1.3 3.1 1.7a1.09 1.09 0 00-.1.5 1.92 1.92 0 001.3 1.8v5.3h1.4v-5.3a2.09 2.09 0 00.6-.4 2 2 0 00.6-1.4.6.6 0 00-.1-.4l3.7-1.8zm-4.9 3c.1 0 .2.1.3.2a.49.49 0 11-.7.7c-.1-.1-.1-.2-.1-.4a.47.47 0 01.5-.5zm8.1-2.9l3.1-1.5c.1.1.3.2.4.3v5.2h1.5v-5.1a1.37 1.37 0 00.8-.5 1.82 1.82 0 000-2.7 1.65 1.65 0 00-1.5-.5l-4.1-2.2-.8 1.3 3.3 1.8a1.32 1.32 0 00-.2 1.2l-3.1 1.4zM113 38a.48.48 0 010 .7.6.6 0 01-.8 0c-.3-.2-.2-.5 0-.7s.2-.1.4-.1.3.1.4.1zm-23.9-.6l3.4-1.8-.7-1.3-4 2.2a2.38 2.38 0 00-1.8.5 1.55 1.55 0 00-.5 1.4 1.87 1.87 0 001.2 1.8v5.1h1.4v-5.1a1.79 1.79 0 00.7-.5l.3-.2 3.4 1.9.7-1.3-3.9-2a1.45 1.45 0 00-.2-.7zm-2.2 1a.47.47 0 01.5-.5c.1 0 .3.1.4.1s.1.2.1.4a.44.44 0 01-.1.3.6.6 0 01-.8 0 .37.37 0 01-.1-.3zm1.9 14.7l-.7-.4v-6h-1.4v6a2.51 2.51 0 00-.7.4 1.55 1.55 0 00-.5 1.4 1.9 1.9 0 001.9 1.9 2.92 2.92 0 00.9-.2l3.7 2 .7-1.3-3.4-1.8a2 2 0 00-.5-2zm-1 1.8c-.1.1-.2.1-.4.1a.5.5 0 010-1 .51.51 0 01.4.9zm25.4-2.2v-5.9h-1.5v6a2.19 2.19 0 00-.5.3 2.21 2.21 0 00-.5 2.2l-3.5 1.9.7 1.3 3.9-2.1a6.37 6.37 0 00.7.2 1.61 1.61 0 001.3-.6 1.82 1.82 0 000-2.7.89.89 0 00-.6-.6zm-.6 2.3a.5.5 0 010-1c.1 0 .3.1.4.1s.1.2.1.4a.47.47 0 01-.5.5zm-11.2-25.3a1.94 1.94 0 00-1.3-.6 2.05 2.05 0 00-2 1.9v-.1L94.3 33l.7 1.3 3.6-2a2.13 2.13 0 001.5.7 1.9 1.9 0 001.3-.5l.2-.2 3.6 2 .7-1.3-3.9-2.1a1.74 1.74 0 00-.6-1.2zm-1 1.7a.49.49 0 01-.7-.7c.1-.1.2-.1.4-.2s.3.1.3.2a.48.48 0 010 .7zm4.8 26.8l-3.5 1.8c-.1-.1-.1-.2-.3-.4s-.4-.4-.6-.4v-5.1h-1.4v5.1a1.89 1.89 0 00-1 .8l-3.6-1.9-.6 1.2 4 2.1a1.85 1.85 0 001.9 1.5 1.61 1.61 0 001.3-.6 3.51 3.51 0 00.5-.8l3.9-2zm-4.8 3.1a.49.49 0 01-.7-.7c.1-.1.2-.1.4-.1a.44.44 0 01.3.1.48.48 0 010 .7z" fill="#fff"/>
</svg>
